HIERARCHY
ROOT Hips
{
	OFFSET 0.000000 0.000000 0.000000
	CHANNELS 6 Xposition Yposition Zposition Zrotation Yrotation Xrotation 
	JOINT LHipJoint
	{
		OFFSET 0.000000 0.000000 0.000000
		CHANNELS 3 Zrotation Yrotation Xrotation
		JOINT LeftUpLeg
		{
			OFFSET 1.363060 -1.794630 0.839290
			CHANNELS 3 Zrotation Yrotation Xrotation
			JOINT LeftLeg
			{
				OFFSET 2.448110 -6.726130 0.000000
				CHANNELS 3 Zrotation Yrotation Xrotation
				JOINT LeftFoot
				{
					OFFSET 2.562200 -7.039590 0.000000
					CHANNELS 3 Zrotation Yrotation Xrotation
					JOINT LeftToeBase
					{
						OFFSET 0.157640 -0.433110 2.322550
						CHANNELS 3 Zrotation Yrotation Xrotation
						End Site
						{
							OFFSET 0.000000 0.000000 0.000000
						}
					}
				}
			}
		}
	}
	JOINT RHipJoint
	{
		OFFSET 0.000000 0.000000 0.000000
		CHANNELS 3 Zrotation Yrotation Xrotation
		JOINT RightUpLeg
		{
			OFFSET -1.305520 -1.794630 0.839290
			CHANNELS 3 Zrotation Yrotation Xrotation
			JOINT RightLeg
			{
				OFFSET -2.542530 -6.985550 0.000000
				CHANNELS 3 Zrotation Yrotation Xrotation
				JOINT RightFoot
				{
					OFFSET -2.568260 -7.056230 0.000000
					CHANNELS 3 Zrotation Yrotation Xrotation
					JOINT RightToeBase
					{
						OFFSET -0.164730 -0.452590 2.363150
						CHANNELS 3 Zrotation Yrotation Xrotation
						End Site
						{
							OFFSET 0.000000 0.000000 0.000000
						}
					}
				}
			}
		}
	}
	JOINT LowerBack
	{
		OFFSET 0.000000 0.000000 0.000000
		CHANNELS 3 Zrotation Yrotation Xrotation
		JOINT Spine
		{
			OFFSET 0.028270 2.035590 -0.193380
			CHANNELS 3 Zrotation Yrotation Xrotation
			JOINT Spine1
			{
				OFFSET 0.056720 2.048850 -0.042750
				CHANNELS 3 Zrotation Yrotation Xrotation
				JOINT Neck
				{
					OFFSET 0.000000 0.000000 0.000000
					CHANNELS 3 Zrotation Yrotation Xrotation
					JOINT Neck1
					{
						OFFSET -0.054170 1.746240 0.172020
						CHANNELS 3 Zrotation Yrotation Xrotation
						JOINT Head
						{
							OFFSET 0.104070 1.761360 -0.123970
							CHANNELS 3 Zrotation Yrotation Xrotation
							End Site
							{
								OFFSET 0.000000 0.000000 0.000000
							}
						}
					}
				}
				JOINT LeftShoulder
				{
					OFFSET 0.000000 0.000000 0.000000
					CHANNELS 3 Zrotation Yrotation Xrotation
					JOINT LeftArm
					{
						OFFSET 3.362410 1.200890 -0.311210
						CHANNELS 3 Zrotation Yrotation Xrotation
						JOINT LeftForeArm
						{
							OFFSET 4.983000 -0.000000 -0.000000
							CHANNELS 3 Zrotation Yrotation Xrotation
							JOINT LeftHand
							{
								OFFSET 3.483560 -0.000000 -0.000000
								CHANNELS 3 Zrotation Yrotation Xrotation
								JOINT LeftFingerBase
								{
									OFFSET 0.000000 0.000000 0.000000
									CHANNELS 3 Zrotation Yrotation Xrotation
									JOINT LeftHandIndex1
									{
										OFFSET 0.715260 -0.000000 -0.000000
										CHANNELS 3 Zrotation Yrotation Xrotation
										End Site
										{
											OFFSET 0.000000 0.000000 0.000000
										}
									}
								}
								JOINT LThumb
								{
									OFFSET 0.000000 0.000000 0.000000
									CHANNELS 3 Zrotation Yrotation Xrotation
									End Site
									{
										OFFSET 0.000000 0.000000 0.000000
									}
								}
							}
						}
					}
				}
				JOINT RightShoulder
				{
					OFFSET 0.000000 0.000000 0.000000
					CHANNELS 3 Zrotation Yrotation Xrotation
					JOINT RightArm
					{
						OFFSET -3.136600 1.374050 -0.404650
						CHANNELS 3 Zrotation Yrotation Xrotation
						JOINT RightForeArm
						{
							OFFSET -5.241900 -0.000000 -0.000000
							CHANNELS 3 Zrotation Yrotation Xrotation
							JOINT RightHand
							{
								OFFSET -3.444170 -0.000000 -0.000000
								CHANNELS 3 Zrotation Yrotation Xrotation
								JOINT RightFingerBase
								{
									OFFSET 0.000000 0.000000 0.000000
									CHANNELS 3 Zrotation Yrotation Xrotation
									JOINT RightHandIndex1
									{
										OFFSET -0.622530 -0.000000 -0.000000
										CHANNELS 3 Zrotation Yrotation Xrotation
										End Site
										{
											OFFSET 0.000000 0.000000 0.000000
										}
									}
								}
								JOINT RThumb
								{
									OFFSET 0.000000 0.000000 0.000000
									CHANNELS 3 Zrotation Yrotation Xrotation
									End Site
									{
										OFFSET 0.000000 0.000000 0.000000
									}
								}
							}
						}
					}
				}
			}
		}
	}
}
MOTION
Frames: 10
Frame Time: 0.008333
4.199314 17.328516 -1.202080 151.853507 -80.176789 -143.248465 -9.758670 0.734801 2.057414 -5.899013 -5.663178 -23.369247 0.960818 1.263926 43.249313 4.010502 28.163122 11.678083 9.787700 0.000000 -56.889400 10.534643 -1.627302 2.325464 4.780478 4.695315 -11.185674 1.630269 -0.725427 16.841601 -1.263252 -4.016119 -9.665091 -0.021201 0.000000 -57.670700 -6.982754 -1.467127 -5.492293 -2.106334 -1.121920 -3.301612 -6.149270 -1.172586 2.577378 9.563536 -14.941938 -6.952236 -2.466808 -0.210886 0.215995 0.000000 0.000000 0.000000 2.119556 18.624854 -0.277111 -67.698784 21.517697 -11.191861 -1.835335 -57.819406 0.015985 17.409172 -7.440065 -1.166635 -0.262460 0.074503 -0.000000 0.000000 0.000000 0.000000 0.000000 0.000000 0.000000 11.722217 -10.127656 -2.236560 72.835713 -6.045361 -6.789736 1.147918 63.311817 -0.019560 -12.050403 10.823380 -1.193025 0.190456 -0.287656 0.000000 0.000000 0.000000 0.000000 0.000000 0.000000 0.000000 
4.230356 17.343428 -1.239822 150.329671 -80.296900 -141.685901 -9.736979 0.441642 2.120131 -5.775899 -6.949908 -25.941200 1.155415 1.426439 47.648724 3.951214 27.598454 14.756355 10.742500 -0.000000 -56.061600 10.647259 -1.549633 2.151879 4.672793 4.350968 -11.005801 1.609140 -0.710479 16.389570 -1.250465 -4.017645 -9.391169 -0.050000 -0.000000 -57.625300 -7.190105 -1.435593 -5.289911 -2.148714 -1.069369 -3.255022 -6.142897 -1.116305 2.596103 9.561606 -14.995100 -7.053781 -2.440736 -0.207149 0.186198 0.000000 0.000000 0.000000 2.062857 18.792979 -0.265523 -67.770161 21.430631 -11.356593 -1.805004 -58.321432 0.015324 17.429351 -7.454848 -1.170927 -0.263940 0.077572 -0.000000 0.000000 0.000000 0.000000 0.000000 0.000000 0.000000 11.641299 -10.135670 -2.189512 73.006869 -6.098224 -7.164395 1.152312 63.206896 -0.020479 -12.302096 10.693121 -1.203626 0.193894 -0.287124 0.000000 0.000000 0.000000 0.000000 0.000000 0.000000 0.000000 
4.262152 17.359037 -1.274662 148.623751 -80.500461 -139.872948 -9.701502 0.121282 2.197536 -5.600128 -8.227211 -28.650847 1.318063 1.572495 51.879920 3.891368 26.784168 17.627284 11.396100 0.000000 -54.323301 10.758446 -1.469693 1.978828 4.593435 3.962148 -10.898713 1.588173 -0.687707 15.902474 -1.243348 -4.052786 -9.092991 -0.082199 0.000000 -57.543100 -7.384026 -1.411044 -5.095396 -2.188646 -1.025186 -3.213174 -6.138440 -1.068796 2.605320 9.588021 -15.032038 -7.169593 -2.417905 -0.203494 0.153047 0.000000 0.000000 0.000000 2.023841 18.882840 -0.243339 -67.862975 21.278455 -11.578010 -1.771936 -58.834283 0.014453 17.473879 -7.475121 -1.177721 -0.265056 0.081154 -0.000000 0.000000 0.000000 0.000000 0.000000 0.000000 0.000000 11.593310 -10.129254 -2.127942 73.127590 -6.137284 -7.527611 1.156666 63.095058 -0.021353 -12.534464 10.549528 -1.210230 0.196966 -0.286204 0.000000 0.000000 0.000000 0.000000 0.000000 0.000000 0.000000 
4.293621 17.375240 -1.306676 146.737379 -80.784576 -137.792541 -9.650479 -0.219485 2.291984 -5.363011 -9.474705 -31.534218 1.455361 1.714219 55.952280 3.831778 25.764358 20.090394 11.699200 0.000000 -51.815000 10.865739 -1.390529 1.819215 4.552494 3.549760 -10.897693 1.567750 -0.656444 15.395278 -1.243611 -4.129417 -8.774902 -0.118499 -0.000000 -57.439400 -7.555664 -1.394301 -4.928846 -2.223684 -0.991110 -3.179033 -6.133163 -1.032145 2.609914 9.638483 -15.078340 -7.304130 -2.395494 -0.199668 0.115645 0.000000 0.000000 0.000000 2.003056 18.899523 -0.212967 -67.973750 21.070310 -11.833810 -1.736668 -59.349851 0.013375 17.540706 -7.502564 -1.187216 -0.265860 0.085272 -0.000000 0.000000 0.000000 0.000000 0.000000 0.000000 0.000000 11.567264 -10.136755 -2.052270 73.195423 -6.137886 -7.839418 1.162321 62.956923 -0.022098 -12.740334 10.409736 -1.214135 0.199650 -0.284967 0.000000 0.000000 0.000000 0.000000 0.000000 0.000000 0.000000 
4.324302 17.391884 -1.336258 144.581360 -81.152879 -135.348614 -9.576932 -0.576444 2.410665 -5.059486 -10.716661 -34.602691 1.579583 1.858399 59.852814 3.779514 24.669260 22.114436 11.736200 -0.000000 -49.463800 10.973454 -1.311097 1.672994 4.550364 3.101557 -11.016929 1.548979 -0.616597 14.875428 -1.249523 -4.237514 -8.441883 -0.158600 0.000000 -57.310600 -7.704995 -1.390973 -4.797428 -2.253510 -0.972836 -3.153858 -6.127101 -1.012241 2.609911 9.713274 -15.129503 -7.456872 -2.373689 -0.195688 0.074110 0.000000 0.000000 0.000000 2.005532 18.845853 -0.173533 -68.098683 20.816062 -12.110048 -1.699612 -59.866528 0.012084 17.626828 -7.534696 -1.198912 -0.266353 0.089906 -0.000000 0.000000 0.000000 0.000000 0.000000 0.000000 0.000000 11.564117 -10.156150 -1.964158 73.210925 -6.105532 -8.092111 1.169003 62.798005 -0.022665 -12.912223 10.287253 -1.216241 0.201829 -0.283503 0.000000 0.000000 0.000000 0.000000 0.000000 0.000000 0.000000 
4.353845 17.408782 -1.363714 142.079759 -81.602657 -132.463072 -9.475939 -0.942951 2.554934 -4.683242 -11.948230 -37.869427 1.703154 2.011899 63.583871 3.733209 23.564513 23.633791 11.554700 0.000000 -47.240500 11.084268 -1.230633 1.541582 4.591831 2.619110 -11.261137 1.532785 -0.567840 14.346796 -1.260653 -4.374576 -8.097487 -0.202899 0.000000 -57.162700 -7.827351 -1.403750 -4.704257 -2.276964 -0.973450 -3.138385 -6.120026 -1.012266 2.604761 9.809015 -15.179926 -7.626544 -2.352117 -0.191528 0.028722 0.000000 0.000000 0.000000 2.034206 18.724617 -0.124432 -68.233183 20.524701 -12.392056 -1.661237 -60.380720 0.010581 17.728145 -7.570931 -1.212409 -0.266539 0.095040 -0.000000 0.000000 0.000000 0.000000 0.000000 0.000000 0.000000 11.577697 -10.183276 -1.864733 73.180967 -6.047193 -8.286560 1.176442 62.623021 -0.023021 -13.045117 10.194754 -1.217849 0.203420 -0.281941 0.000000 0.000000 0.000000 0.000000 0.000000 0.000000 0.000000 
4.382051 17.425739 -1.389489 139.137856 -82.122537 -129.041642 -9.340022 -1.312639 2.726802 -4.228986 -13.169448 -41.332297 1.835823 2.175176 67.117973 3.694917 22.532504 24.685088 11.245600 -0.000001 -45.539000 11.202335 -1.146394 1.424869 4.677214 2.108024 -11.630435 1.519522 -0.510001 13.813533 -1.276525 -4.537586 -7.746824 -0.251400 -0.000000 -56.994300 -7.920440 -1.433388 -4.650277 -2.293465 -0.993863 -3.132683 -6.111527 -1.033126 2.595030 9.921060 -15.228435 -7.812857 -2.329807 -0.187096 -0.020577 0.000000 0.000000 0.000000 2.090246 18.543178 -0.065805 -68.370708 20.198511 -12.663178 -1.622182 -60.884976 0.008873 17.840849 -7.610480 -1.227407 -0.266420 0.100660 -0.000000 0.000000 0.000000 0.000000 0.000000 0.000000 0.000000 11.599202 -10.217944 -1.755095 73.117303 -5.962096 -8.424296 1.184564 62.431786 -0.023153 -13.138032 10.142512 -1.220258 0.204403 -0.280413 0.000000 0.000000 0.000000 0.000000 0.000000 0.000000 0.000000 
4.408873 17.442549 -1.414110 135.645528 -82.693953 -124.977699 -9.160101 -1.676614 2.925968 -3.694939 -14.374956 -44.977146 1.982569 2.344854 70.409621 3.665946 21.629162 25.335400 10.887000 0.000000 -44.634500 11.332643 -1.054183 1.321501 4.803335 1.577648 -12.116910 1.508862 -0.442837 13.277586 -1.296735 -4.724611 -7.393374 -0.304300 0.000000 -56.807300 -7.983820 -1.478364 -4.632258 -2.303027 -1.032562 -3.136169 -6.101593 -1.073213 2.580906 10.044771 -15.272880 -8.015077 -2.305843 -0.182297 -0.073817 0.000000 0.000000 0.000000 2.174122 18.308604 0.002005 -68.503943 19.836952 -12.909395 -1.583126 -61.370161 0.006956 17.960352 -7.652862 -1.243406 -0.265988 0.106745 -0.000000 0.000000 0.000000 0.000000 0.000000 0.000000 0.000000 11.619620 -10.258027 -1.635861 73.035646 -5.850467 -8.514295 1.193239 62.224684 -0.023071 -13.192845 10.136611 -1.224466 0.204798 -0.279038 0.000000 0.000000 0.000000 0.000000 0.000000 0.000000 0.000000 
4.434697 17.459111 -1.438135 131.484011 -83.291323 -120.161300 -8.927132 -2.022253 3.148926 -3.084201 -15.550727 -48.782777 2.143977 2.515518 73.401069 3.645054 20.869778 25.641846 10.520701 0.000000 -44.327000 11.479890 -0.948303 1.229115 4.964599 1.040117 -12.707685 1.499899 -0.366035 12.740795 -1.320939 -4.934728 -7.039169 -0.362000 -0.000001 -56.602100 -8.020287 -1.535131 -4.643025 -2.306534 -1.085794 -3.147703 -6.090792 -1.128634 2.561940 10.176134 -15.310078 -8.232114 -2.279701 -0.177063 -0.131023 0.000000 0.000000 0.000000 2.285994 18.027301 0.078445 -68.625517 19.436127 -13.121331 -1.544657 -61.826708 0.004835 18.082579 -7.697300 -1.260108 -0.265214 0.113269 -0.000000 0.000000 0.000000 0.000000 0.000000 0.000000 0.000000 11.632022 -10.299237 -1.507317 72.953047 -5.712149 -8.571321 1.202175 62.003096 -0.022810 -13.213618 10.177253 -1.231075 0.204642 -0.277916 0.000000 0.000000 0.000000 0.000000 0.000000 0.000000 0.000000 
4.459548 17.475339 -1.462130 126.583080 -83.878906 -114.522983 -8.635172 -2.335059 3.393935 -2.400403 -16.678546 -52.728638 2.314784 2.678324 76.013888 3.632815 20.263076 25.707472 10.190300 0.000001 -44.701600 11.643867 -0.823253 1.149667 5.153063 0.520758 -13.400166 1.491127 -0.278588 12.209306 -1.349843 -5.172156 -6.686720 -0.425300 -0.000000 -56.388100 -8.035350 -1.596962 -4.683285 -2.305297 -1.146500 -3.167153 -6.078742 -1.192313 2.540701 10.310826 -15.350110 -8.465361 -2.249767 -0.171215 -0.192795 0.000000 0.000000 0.000000 2.421924 17.711663 0.161170 -68.726807 18.985831 -13.287351 -1.507476 -62.242075 0.002517 18.204424 -7.743514 -1.277212 -0.264108 0.120213 -0.000000 0.000000 0.000000 0.000000 0.000000 0.000000 0.000000 11.627902 -10.350038 -1.369545 72.885183 -5.533774 -8.600501 1.211706 61.759853 -0.022417 -13.207314 10.258193 -1.239985 0.204067 -0.277096 0.000000 0.000000 0.000000 0.000000 0.000000 0.000000 0.000000 
